<?xml version="1.0" encoding="UTF-8"?>
<svg width="235px" height="46px" viewBox="0 0 235 46" version="1.1" xmlns="http://www.w3.org/2000/svg" xmlns:xlink="http://www.w3.org/1999/xlink">
    <title>polygon.io</title>
    <g id="Lanyards" stroke="none" stroke-width="1" fill="none" fill-rule="evenodd">
        <g id="D" transform="translate(-163.000000, -32.000000)" fill-rule="nonzero">
            <g id="polygon-io-lanyard" transform="translate(48.000000, 18.000000)">
                <g id="polygon.io" transform="translate(115.000000, 14.000000)">
                    <path d="M6.15823165,45.2388831 L6.15823165,35.4870734 L5.78215643,32.0620476 L6.15823165,32.0620476 C6.78502367,33.1085832 7.73304661,33.9806963 9.00230046,34.6783868 C10.2715543,35.3760772 11.7210109,35.7249224 13.3506701,35.7249224 C15.5131026,35.7249224 17.4796626,35.1778697 19.2503501,34.0837642 C21.0210375,32.9896587 22.4078149,31.467425 23.4106821,29.5170631 C24.4135494,27.5667011 24.914983,25.3388487 24.914983,22.8335057 C24.914983,20.3598759 24.4135494,18.1399517 23.4106821,16.1737332 C22.4078149,14.2075147 21.0210375,12.6773526 19.2503501,11.5832472 C17.4796626,10.4891417 15.5131026,9.94208893 13.3506701,9.94208893 C11.7210109,9.94208893 10.2793892,10.2988625 9.02580516,11.0124095 C7.77222111,11.7259566 6.81636327,12.6059979 6.15823165,13.6525336 L6.15823165,13.6525336 L5.78215643,13.6525336 L5.78215643,10.7032058 L0,10.7032058 L0,45.2388831 L6.15823165,45.2388831 Z M12.2694539,29.9689762 C11.1412282,29.9689762 10.0756818,29.6677008 9.07281456,29.0651499 C8.06994732,28.4625991 7.27078749,27.6221992 6.67533507,26.5439504 C6.07988264,25.4657015 5.78215643,24.2288866 5.78215643,22.8335057 C5.78215643,21.4381248 6.07988264,20.2013099 6.67533507,19.123061 C7.27078749,18.0448121 8.06994732,17.2123406 9.07281456,16.6256463 C10.0756818,16.0389521 11.1412282,15.745605 12.2694539,15.745605 C13.4290191,15.745605 14.5102354,16.0389521 15.5131026,16.6256463 C16.5159699,17.2123406 17.3151297,18.0448121 17.9105821,19.123061 C18.5060345,20.2013099 18.8037608,21.4381248 18.8037608,22.8335057 C18.8037608,24.2288866 18.5060345,25.4657015 17.9105821,26.5439504 C17.3151297,27.6221992 16.5159699,28.4625991 15.5131026,29.0651499 C14.5102354,29.6677008 13.4290191,29.9689762 12.2694539,29.9689762 Z M41.1332266,35.7249224 C43.5777155,35.7249224 45.7714876,35.1620131 47.7145429,34.0361944 C49.6575982,32.9103757 51.1697339,31.3722854 52.2509502,29.4219235 C53.3321664,27.4715615 53.8727746,25.2754223 53.8727746,22.8335057 C53.8727746,20.4233023 53.3321664,18.2350913 52.2509502,16.2688728 C51.1697339,14.3026543 49.6575982,12.7566356 47.7145429,11.630817 C45.7714876,10.5049983 43.5777155,9.94208893 41.1332266,9.94208893 C38.6573981,9.94208893 36.4479563,10.5049983 34.504901,11.630817 C32.5618457,12.7566356 31.0497099,14.3026543 29.9684937,16.2688728 C28.8872775,18.2350913 28.3466693,20.4233023 28.3466693,22.8335057 C28.3466693,25.2754223 28.8872775,27.4715615 29.9684937,29.4219235 C31.0497099,31.3722854 32.5618457,32.9103757 34.504901,34.0361944 C36.4479563,35.1620131 38.6573981,35.7249224 41.1332266,35.7249224 Z M41.1332266,29.9689762 C39.9423218,29.9689762 38.8454358,29.6835574 37.8425685,29.1127198 C36.8397013,28.5418821 36.0327065,27.7094105 35.4215843,26.6153051 C34.8104621,25.5211996 34.504901,24.2605998 34.504901,22.8335057 C34.504901,21.4064116 34.8104621,20.1537401 35.4215843,19.0754912 C36.0327065,17.9972423 36.8397013,17.1726991 37.8425685,16.6018614 C38.8454358,16.0310238 39.9423218,15.745605 41.1332266,15.745605 C42.3241315,15.745605 43.4210175,16.0310238 44.4238848,16.6018614 C45.426752,17.1726991 46.2259118,17.9972423 46.8213643,19.0754912 C47.4168167,20.1537401 47.7145429,21.4064116 47.7145429,22.8335057 C47.7145429,24.292313 47.4168167,25.5608411 46.8213643,26.63909 C46.2259118,27.7173388 45.426752,28.5418821 44.4238848,29.1127198 C43.4210175,29.6835574 42.3241315,29.9689762 41.1332266,29.9689762 Z M64.7319464,34.9638056 L64.7319464,0.903826267 L58.5737147,0.903826267 L58.5737147,34.9638056 L64.7319464,34.9638056 Z M79.774955,45.2388831 L94.5829166,10.7032058 L87.7195439,10.7032058 L81.7493499,25.7828335 L81.3732747,25.7828335 L75.1680336,10.7032058 L68.1636327,10.7032058 L78.2706541,33.8221303 L73.1466293,45.2388831 L79.774955,45.2388831 Z M109.014803,46 C111.490631,46 113.653064,45.4846605 115.5021,44.4539814 C117.351137,43.4233023 118.777089,41.9565667 119.779956,40.0537746 C120.782823,38.1509824 121.284257,35.8993451 121.284257,33.2988625 L121.284257,33.2988625 L121.284257,10.7032058 L115.361072,10.7032058 L115.361072,13.2719752 L114.984997,13.2719752 C114.232847,12.1937263 113.245649,11.369183 112.023405,10.7983454 C110.80116,10.2275078 109.406548,9.94208893 107.839568,9.94208893 C105.865173,9.94208893 104.023971,10.4574285 102.315963,11.4881075 C100.607955,12.5187866 99.2368474,13.9775939 98.2026405,15.8645295 C97.1684337,17.751465 96.6513303,19.9476043 96.6513303,22.4529473 C96.6513303,24.9582902 97.1684337,27.1544295 98.2026405,29.041365 C99.2368474,30.9283006 100.607955,32.3871079 102.315963,33.417787 C104.023971,34.448466 105.865173,34.9638056 107.839568,34.9638056 C109.406548,34.9638056 110.80116,34.6783868 112.023405,34.1075491 C113.245649,33.5367115 114.232847,32.7121682 114.984997,31.6339193 L114.984997,31.6339193 L115.361072,31.6339193 L115.361072,33.5367115 C115.361072,35.7566356 114.789124,37.4691486 113.645229,38.6742503 C112.501334,39.8793519 110.957858,40.4819028 109.014803,40.4819028 C107.69854,40.4819028 106.523305,40.1330576 105.489098,39.4353671 C104.454891,38.7376767 103.687071,37.7862806 103.185637,36.5811789 L103.185637,36.5811789 L97.4034807,38.9596691 C98.0929519,40.8941744 99.4405548,42.5511892 101.446289,43.9307135 C103.452024,45.3102378 105.974862,46 109.014803,46 Z M109.108822,29.302999 C107.353804,29.302999 105.865173,28.7004481 104.642929,27.4953464 C103.420684,26.2902447 102.809562,24.609445 102.809562,22.4529473 C102.809562,20.2964495 103.420684,18.6156498 104.642929,17.4105481 C105.865173,16.2054464 107.353804,15.6028956 109.108822,15.6028956 C110.863839,15.6028956 112.344636,16.1975181 113.55121,17.3867632 C114.757785,18.5760083 115.361072,20.2647363 115.361072,22.4529473 C115.361072,24.5777318 114.74995,26.2506032 113.527706,27.4715615 C112.305461,28.6925198 110.8325,29.302999 109.108822,29.302999 Z M138.771754,35.7249224 C141.216243,35.7249224 143.410015,35.1620131 145.353071,34.0361944 C147.296126,32.9103757 148.808262,31.3722854 149.889478,29.4219235 C150.970694,27.4715615 151.511302,25.2754223 151.511302,22.8335057 C151.511302,20.4233023 150.970694,18.2350913 149.889478,16.2688728 C148.808262,14.3026543 147.296126,12.7566356 145.353071,11.630817 C143.410015,10.5049983 141.216243,9.94208893 138.771754,9.94208893 C136.295926,9.94208893 134.086484,10.5049983 132.143429,11.630817 C130.200373,12.7566356 128.688238,14.3026543 127.607021,16.2688728 C126.525805,18.2350913 125.985197,20.4233023 125.985197,22.8335057 C125.985197,25.2754223 126.525805,27.4715615 127.607021,29.4219235 C128.688238,31.3722854 130.200373,32.9103757 132.143429,34.0361944 C134.086484,35.1620131 136.295926,35.7249224 138.771754,35.7249224 Z M138.771754,29.9689762 C137.58085,29.9689762 136.483963,29.6835574 135.481096,29.1127198 C134.478229,28.5418821 133.671234,27.7094105 133.060112,26.6153051 C132.44899,25.5211996 132.143429,24.2605998 132.143429,22.8335057 C132.143429,21.4064116 132.44899,20.1537401 133.060112,19.0754912 C133.671234,17.9972423 134.478229,17.1726991 135.481096,16.6018614 C136.483963,16.0310238 137.58085,15.745605 138.771754,15.745605 C139.962659,15.745605 141.059545,16.0310238 142.062412,16.6018614 C143.06528,17.1726991 143.86444,17.9972423 144.459892,19.0754912 C145.055344,20.1537401 145.353071,21.4064116 145.353071,22.8335057 C145.353071,24.292313 145.055344,25.5608411 144.459892,26.63909 C143.86444,27.7173388 143.06528,28.5418821 142.062412,29.1127198 C141.059545,29.6835574 139.962659,29.9689762 138.771754,29.9689762 Z M162.370474,34.9638056 L162.370474,22.5956567 C162.370474,20.6294381 162.879743,18.9962082 163.89828,17.6959669 C164.916817,16.3957256 166.256585,15.745605 167.917584,15.745605 C169.327866,15.745605 170.424752,16.1737332 171.208242,17.0299897 C171.991732,17.8862461 172.383477,19.0913478 172.383477,20.6452947 L172.383477,20.6452947 L172.383477,34.9638056 L178.541708,34.9638056 L178.541708,19.8841779 C178.541708,16.8079972 177.789558,14.3819373 176.285257,12.6059979 C174.780956,10.8300586 172.587184,9.94208893 169.703941,9.94208893 C168.1683,9.94208893 166.742348,10.2830059 165.426085,10.9648397 C164.109822,11.6466736 163.091285,12.5742847 162.370474,13.7476732 L162.370474,13.7476732 L161.994399,13.7476732 L161.994399,10.7032058 L156.212242,10.7032058 L156.212242,34.9638056 L162.370474,34.9638056 Z" id="polygon" fill="#0A0A0A"></path>
                    <path d="M188.084617,35.2492244 C189.212843,35.2492244 190.176535,34.8448811 190.975695,34.0361944 C191.774855,33.2275078 192.174435,32.2523268 192.174435,31.1106515 C192.174435,29.9689762 191.774855,29.0017235 190.975695,28.2088935 C190.176535,27.4160634 189.212843,27.0196484 188.084617,27.0196484 C186.956391,27.0196484 185.992699,27.4160634 185.193539,28.2088935 C184.394379,29.0017235 183.994799,29.9689762 183.994799,31.1106515 C183.994799,32.2523268 184.394379,33.2275078 185.193539,34.0361944 C185.992699,34.8448811 186.956391,35.2492244 188.084617,35.2492244 Z M201.294259,8.03929679 C202.391145,8.03929679 203.323498,7.64288176 204.091318,6.85005171 C204.859138,6.05722165 205.243049,5.10582558 205.243049,3.9958635 C205.243049,2.88590141 204.859138,1.94243364 204.091318,1.16546019 C203.323498,0.388486729 202.391145,0 201.294259,0 C200.197373,0 199.257185,0.388486729 198.473695,1.16546019 C197.690205,1.94243364 197.29846,2.88590141 197.29846,3.9958635 C197.29846,5.10582558 197.690205,6.05722165 198.473695,6.85005171 C199.257185,7.64288176 200.197373,8.03929679 201.294259,8.03929679 Z M204.34987,34.9638056 L204.34987,10.7032058 L198.191638,10.7032058 L198.191638,34.9638056 L204.34987,34.9638056 Z M222.260452,35.7249224 C224.704941,35.7249224 226.898713,35.1620131 228.841768,34.0361944 C230.784824,32.9103757 232.296959,31.3722854 233.378176,29.4219235 C234.459392,27.4715615 235,25.2754223 235,22.8335057 C235,20.4233023 234.459392,18.2350913 233.378176,16.2688728 C232.296959,14.3026543 230.784824,12.7566356 228.841768,11.630817 C226.898713,10.5049983 224.704941,9.94208893 222.260452,9.94208893 C219.784624,9.94208893 217.575182,10.5049983 215.632126,11.630817 C213.689071,12.7566356 212.176935,14.3026543 211.095719,16.2688728 C210.014503,18.2350913 209.473895,20.4233023 209.473895,22.8335057 C209.473895,25.2754223 210.014503,27.4715615 211.095719,29.4219235 C212.176935,31.3722854 213.689071,32.9103757 215.632126,34.0361944 C217.575182,35.1620131 219.784624,35.7249224 222.260452,35.7249224 Z M222.260452,29.9689762 C221.069547,29.9689762 219.972661,29.6835574 218.969794,29.1127198 C217.966927,28.5418821 217.159932,27.7094105 216.54881,26.6153051 C215.937688,25.5211996 215.632126,24.2605998 215.632126,22.8335057 C215.632126,21.4064116 215.937688,20.1537401 216.54881,19.0754912 C217.159932,17.9972423 217.966927,17.1726991 218.969794,16.6018614 C219.972661,16.0310238 221.069547,15.745605 222.260452,15.745605 C223.451357,15.745605 224.548243,16.0310238 225.55111,16.6018614 C226.553977,17.1726991 227.353137,17.9972423 227.94859,19.0754912 C228.544042,20.1537401 228.841768,21.4064116 228.841768,22.8335057 C228.841768,24.292313 228.544042,25.5608411 227.94859,26.63909 C227.353137,27.7173388 226.553977,28.5418821 225.55111,29.1127198 C224.548243,29.6835574 223.451357,29.9689762 222.260452,29.9689762 Z" id=".io" fill="#6B6B6B"></path>
                </g>
            </g>
        </g>
    </g>
</svg>